<svg xmlns="http://www.w3.org/2000/svg" viewBox="0 0 400 400" data-product="cap">
  <!-- Brim -->
  <path d="M60,230 C60,250 120,270 200,270 C280,270 340,250 340,230 L340,225 C340,220 280,210 200,210 C120,210 60,220 60,225 Z" fill="#e8e8e8" stroke="#ccc" stroke-width="2"/>
  <!-- Crown -->
  <path d="M80,225 C80,140 120,80 200,80 C280,80 320,140 320,225" fill="#f0f0f0" stroke="#ccc" stroke-width="2"/>
  <!-- Panel lines -->
  <path d="M200,80 L200,225" fill="none" stroke="#ddd" stroke-width="1"/>
  <path d="M140,90 L120,225" fill="none" stroke="#ddd" stroke-width="1"/>
  <path d="M260,90 L280,225" fill="none" stroke="#ddd" stroke-width="1"/>
  <!-- Button top -->
  <circle cx="200" cy="78" r="5" fill="#e0e0e0" stroke="#ccc" stroke-width="1"/>
  <rect class="print-zone" data-zone="front" x="140" y="120" width="120" height="90" fill="none" stroke="none"/>
  <rect class="print-zone" data-zone="side" x="85" y="140" width="55" height="70" fill="none" stroke="none" style="display:none"/>
  <rect class="print-zone" data-zone="back" x="160" y="180" width="80" height="40" fill="none" stroke="none" style="display:none"/>
</svg>
