<svg xmlns="http://www.w3.org/2000/svg" viewBox="0 0 400 400" data-product="pen">
  <!-- Pen body -->
  <path d="M50,200 L310,200 C315,200 320,196 320,192 L320,188 C320,184 315,180 310,180 L50,180 Z" fill="#f0f0f0" stroke="#ccc" stroke-width="2"/>
  <!-- Tip -->
  <path d="M50,180 L20,190 L50,200" fill="#e0e0e0" stroke="#ccc" stroke-width="1.5"/>
  <!-- Clip -->
  <path d="M300,180 L300,160 C300,155 310,155 310,160 L310,175" fill="none" stroke="#ccc" stroke-width="2.5" stroke-linecap="round"/>
  <!-- Cap end -->
  <rect x="320" y="178" width="40" height="24" rx="4" fill="#e8e8e8" stroke="#ccc" stroke-width="1.5"/>
  <!-- Grip section -->
  <rect x="60" y="178" width="60" height="24" rx="2" fill="#e8e8e8" stroke="#ddd" stroke-width="0.5"/>
  <line x1="70" y1="180" x2="70" y2="200" stroke="#ddd" stroke-width="0.5"/>
  <line x1="80" y1="180" x2="80" y2="200" stroke="#ddd" stroke-width="0.5"/>
  <line x1="90" y1="180" x2="90" y2="200" stroke="#ddd" stroke-width="0.5"/>
  <line x1="100" y1="180" x2="100" y2="200" stroke="#ddd" stroke-width="0.5"/>
  <line x1="110" y1="180" x2="110" y2="200" stroke="#ddd" stroke-width="0.5"/>
  <rect class="print-zone" data-zone="front" x="130" y="180" width="160" height="20" fill="none" stroke="none"/>
</svg>
