<svg xmlns="http://www.w3.org/2000/svg" viewBox="0 0 400 400" data-product="pillow">
  <!-- Pillow shape with soft puffy edges -->
  <path d="M80,80 C80,55 120,50 200,50 C280,50 320,55 320,80 C345,80 350,120 350,200 C350,280 345,320 320,320 C320,345 280,350 200,350 C120,350 80,345 80,320 C55,320 50,280 50,200 C50,120 55,80 80,80 Z" fill="#f0f0f0" stroke="#ccc" stroke-width="2"/>
  <!-- Seam lines -->
  <path d="M80,80 C100,100 120,110 200,110 C280,110 300,100 320,80" fill="none" stroke="#e0e0e0" stroke-width="1"/>
  <path d="M80,320 C100,300 120,290 200,290 C280,290 300,300 320,320" fill="none" stroke="#e0e0e0" stroke-width="1"/>
  <path d="M80,80 C100,100 110,120 110,200 C110,280 100,300 80,320" fill="none" stroke="#e0e0e0" stroke-width="1"/>
  <path d="M320,80 C300,100 290,120 290,200 C290,280 300,300 320,320" fill="none" stroke="#e0e0e0" stroke-width="1"/>
  <rect class="print-zone" data-zone="front" x="120" y="120" width="160" height="160" fill="none" stroke="none"/>
</svg>
