<svg xmlns="http://www.w3.org/2000/svg" viewBox="0 0 400 400" data-product="tshirt">
  <path d="M100,80 L60,120 L90,150 L110,130 L110,350 L290,350 L290,130 L310,150 L340,120 L300,80 L250,60 C240,80 220,95 200,95 C180,95 160,80 150,60 Z" fill="#f0f0f0" stroke="#ccc" stroke-width="2"/>
  <path d="M150,60 C160,80 180,95 200,95 C220,95 240,80 250,60" fill="none" stroke="#ccc" stroke-width="2"/>
  <rect class="print-zone" data-zone="front" x="140" y="120" width="120" height="120" fill="none" stroke="none"/>
  <rect class="print-zone" data-zone="back" x="130" y="110" width="140" height="160" fill="none" stroke="none" style="display:none"/>
  <rect class="print-zone" data-zone="pocket" x="210" y="120" width="50" height="50" fill="none" stroke="none" style="display:none"/>
</svg>
